<svg xmlns="http://www.w3.org/2000/svg" viewBox="0 0 1366 576">
	<path style="fill: #00A9E0;" d="M334.4,282.5c-26.3,0-45,8.8-55.8,26.1c-3-16-13.8-23.8-32.9-23.8c-5.8,0-12.4,0.7-20.3,2l-1.9,0.3l0.5,24.8 l2.4-0.2c1.7-0.2,3.3-0.2,4.8-0.2c14.9,0,15.5,7.3,15.5,23.8v147h34.7V362.5c0-23.6,18.7-47.9,49.9-47.9c13.2,0,26.2,4.1,38.8,12.2 l2.6,1.7l8.7-30.3l-1.3-0.9C366.8,287.4,351.4,282.5,334.4,282.5"/>
	<path style="fill: #00A9E0;" d="M480.7,284.5c-26.5,0-50.9,8.9-68.6,25.1c-19,17.3-29.6,41.8-30.5,70.8c-0.9,30.4,8.3,56.6,26.7,75.5 c19.2,19.8,47.9,30.7,80.6,30.7c23.5,0,47.9-5.6,70.4-16.3l1.6-0.8l-5.6-27.6l-2.5,1.1c-22.5,9.2-42.6,13.6-63.1,13.6 c-23.1,0-43.2-7.7-56.7-21.8c-11-11.6-16.7-26.7-16.4-43.8h149.9l0.3-1.9c5.5-32.1,0.2-58.7-15.1-77 C536.7,294.3,512.1,284.7,480.7,284.5 M480.7,313.3c18.6,0,34.2,5.7,44.1,16.1c8.1,8.6,12.1,19.8,11.8,33.4H418.2 C423.9,332.3,447.6,313.3,480.7,313.3"/>
	<polygon style="fill: #00A9E0;" points="702.9,360 673.6,429.6 644.3,361.1 611.5,288.8 574.4,288.8 574.4,295.1 665.1,483.9 680.9,483.9 771.2,295.1 771.2,288.8 734.5,288.8 "/>
	<rect x="794.8" y="290.4" style="fill: #00A9E0;" width="35.1" height="192"/>
	<path style="fill: #00A9E0;" d="M812.6,220.6c-10.8,0-21.7,7.4-21.7,21.7c0,14.4,10.9,22,21.7,22c10.8,0,21.7-7.6,21.7-22 C834.2,228,823.3,220.6,812.6,220.6"/>
	<path style="fill: #00A9E0;" d="M950.7,368.4c-35.7-5.2-50.7-10-51-26.1c-0.3-5.9,1.6-11.1,5.7-15.4c7.7-8.1,23.6-13.2,41.5-13.2 c23.3,0,46.8,8.5,46.8,27.5v2.3h33.9l0.1-2.2c0.4-12.7-3.9-23.9-12.9-33.1c-14.2-14.6-39.5-23.4-67.9-23.4 c-28.6,0-53.1,8.4-67.2,22.9c-9.4,9.6-13.9,21.6-13.5,35.5c1.2,40.9,42.6,49.1,81.2,53.6c37.6,5.5,51,10.7,51,29 c-1.1,22.1-26.5,32-51,32c-22.8,0-50-8.2-51.9-31.2l-0.2-2.1h-34.4l0.2,2.4c2.8,38.2,34.2,60.2,86.2,60.2h0h0 c51.8-1.4,85.3-25.4,85.3-61.1C1033.9,379.1,989.7,373.5,950.7,368.4"/>
	<path style="fill: #00A9E0;" d="M1252.9,457.1c-2.8,0.3-5,0.4-7,0.4c-10.3,0-12.9-2.8-12.9-28V288.8h-35.1v112.1c0,33.4-21.1,55-53.8,55 c-13.3,0-24.6-4.3-32.6-12.4c-9.5-9.6-14.4-24.2-14.2-42.2V288.8h-35.5v112.5c0,25.3,5.7,45.4,17,59.9 c12.6,16.2,31.5,24.4,56.2,24.4c21.8,0,48.3-3.3,65.2-27c0.6,7.7,2.9,13.6,7,17.9c5.4,5.7,13.7,8.5,25.4,8.5 c5.9,0,12.9-0.7,21.2-2.1l1.9-0.3l-0.5-25.6L1252.9,457.1z"/>
	<path style="fill: #00A9E0;" d="M1364.6,454l-2.4,0.3c-5.5,0.7-10.2,1.1-14.4,1.1c-12.6,0-20.2-3.1-24.6-9.9c-4.2-6.4-5.9-16.5-5.9-33.6V220.6 h-35.5v191.3c0,51.5,17.2,73.5,57.4,73.5c7.4,0,15.6-0.7,24.8-2.2l2-0.3L1364.6,454z"/>
	<path style="fill: #00A9E0;" d="M120.3,283.7c-29.9,0-51.4,10.1-66.9,31.5c-0.7-8-3.3-14.4-7.8-19.1c-5.9-6.1-15-9.2-27.1-9.2 c-5,0-10.5,0.5-16.5,1.6L0,288.8L0.5,316l2.5-0.3c1.7-0.2,3.2-0.3,4.6-0.3c4.7,0,8.1,1.1,10.4,3.4c5,5.1,4.9,16.1,4.8,28.8 c0,2.1,0,4.4,0,6.6V541c0,23,11.3,34.2,34.6,34.2c6,0,12.9-0.7,21.3-2.2l1.9-0.3l-0.5-25.6l-2.5,0.3c-2.8,0.3-5,0.4-6.9,0.4 c-9.3,0-12.3-2.7-12.9-19.4V467c17.9,11.2,37.6,17.2,57.2,17.2h0c25,0,48.1-9.5,65.2-26.9c18.2-18.5,27.8-43.7,27.8-72.9 C208.1,324.2,172.8,283.7,120.3,283.7 M57.1,433.9v-57.2c1.4-39.8,29.9-60.6,57.3-60.6c36.2,0,57.7,25.5,57.7,68.3 c0,47.3-31.4,68.4-62.6,68.4C91.7,452.8,73.2,446.1,57.1,433.9"/>
	<path style="fill: #00A9E0;" d="M1097.3,222.9c0-0.1,0-0.3,0-0.5c0.1-27.5,22.6-49.9,50.1-49.9c27.7,0,50.1,22.5,50.1,50.1v2.3h35.8v-2.3 c0-27.7,22.5-50.1,50.2-50.1c10.9,0,21.3,3.5,30,10l3.6,2.7v-41.3l-1.4-0.6c-10.3-4.2-21.1-6.3-32.2-6.3 c-26.7,0-51.9,12.6-68.1,33.8c-16.2-21.2-41.4-33.8-68.1-33.8c-11.2,0-22,2.1-32.2,6.3c30.8-64.9,96.2-106.5,168.2-106.5h0.4 c10.2,0,20.6,0.9,30.8,2.6l2.7,0.5v-36l-2-0.3c-10.4-1.5-21-2.3-31.5-2.3h-0.3c-58.3,0-113.3,22.5-155,63.4 c-41.6,40.8-65.2,95.3-66.5,153.4c-0.1,1.7-0.1,3.1-0.1,4.6v2.4h35.5V222.9z"/>
</svg>
